{
    "asset" : {
        "generator" : "Khronos Blender glTF 2.0 I/O",
        "version" : "2.0"
    },
    "scene" : 0,
    "scenes" : [
        {
            "name" : "Scene",
            "nodes" : [
                0,
                1,
                2
            ]
        }
    ],
    "nodes" : [
        {
            "name" : "Camera",
            "rotation" : [
                0.483536034822464,
                0.33687159419059753,
                -0.20870360732078552,
                0.7804827094078064
            ],
            "translation" : [
                7.358891487121582,
                4.958309173583984,
                6.925790786743164
            ]
        },
        {
            "mesh" : 0,
            "name" : "Dts.001",
            "rotation" : [
                -0.0006003816379234195,
                0,
                -0.9999998211860657,
                8.066659146210853e-11
            ],
            "scale" : [
                0.08453234285116196,
                0.08453235030174255,
                0.08453235775232315
            ],
            "translation" : [
                -0.054155826568603516,
                0.8914680480957031,
                -0.3686070144176483
            ]
        },
        {
            "name" : "Sun",
            "rotation" : [
                0.7071068286895752,
                0,
                0,
                0.7071067094802856
            ],
            "translation" : [
                4.789604187011719,
                16.708171844482422,
                8.893460273742676
            ]
        }
    ],
    "materials" : [
        {
            "name" : "Standard(Clone)_COLOR_0",
            "pbrMetallicRoughness" : {
                "metallicFactor" : 0,
                "roughnessFactor" : 0.5
            }
        }
    ],
    "meshes" : [
        {
            "name" : "Dts.001",
            "primitives" : [
                {
                    "attributes" : {
                        "POSITION" : 0,
                        "NORMAL" : 1,
                        "TEXCOORD_0" : 2,
                        "COLOR_0" : 3
                    },
                    "indices" : 4,
                    "material" : 0
                }
            ]
        }
    ],
    "accessors" : [
        {
            "bufferView" : 0,
            "componentType" : 5126,
            "count" : 12162,
            "max" : [
                38.90013885498047,
                11.85744571685791,
                7.312471866607666
            ],
            "min" : [
                -40.818946838378906,
                -13.37285327911377,
                -5.178621292114258
            ],
            "type" : "VEC3"
        },
        {
            "bufferView" : 1,
            "componentType" : 5126,
            "count" : 12162,
            "type" : "VEC3"
        },
        {
            "bufferView" : 2,
            "componentType" : 5126,
            "count" : 12162,
            "type" : "VEC2"
        },
        {
            "bufferView" : 3,
            "componentType" : 5126,
            "count" : 12162,
            "type" : "VEC4"
        },
        {
            "bufferView" : 4,
            "componentType" : 5123,
            "count" : 15228,
            "type" : "SCALAR"
        }
    ],
    "bufferViews" : [
        {
            "buffer" : 0,
            "byteLength" : 145944,
            "byteOffset" : 0
        },
        {
            "buffer" : 0,
            "byteLength" : 145944,
            "byteOffset" : 145944
        },
        {
            "buffer" : 0,
            "byteLength" : 97296,
            "byteOffset" : 291888
        },
        {
            "buffer" : 0,
            "byteLength" : 194592,
            "byteOffset" : 389184
        },
        {
            "buffer" : 0,
            "byteLength" : 30456,
            "byteOffset" : 583776
        }
    ],
    "buffers" : [
        {
            "byteLength" : 614232,
            "uri" : "DTS-logo.bin"
        }
    ]
}
